<svg width="48" height="48" viewBox="0 0 48 48" fill="none" xmlns="http://www.w3.org/2000/svg">
<path fill-rule="evenodd" clip-rule="evenodd" d="M38.6698 24C38.6698 28.9706 34.6076 33 29.5966 33C24.5856 33 20.5234 28.9706 20.5234 24C20.5234 19.0294 24.5856 15 29.5966 15C34.6076 15 38.6698 19.0294 38.6698 24Z" fill="#F79F1A"/>
<path fill-rule="evenodd" clip-rule="evenodd" d="M27.4766 24C27.4766 28.9706 23.4145 33 18.4035 33C13.3925 33 9.33032 28.9706 9.33032 24C9.33032 19.0294 13.3925 15 18.4035 15C23.4145 15 27.4766 19.0294 27.4766 24Z" fill="#EA001B"/>
<path fill-rule="evenodd" clip-rule="evenodd" d="M24.0001 16.9152C21.8831 18.5628 20.5242 21.1231 20.5242 23.9992C20.5242 26.8753 21.8831 29.4376 24.0001 31.0852C26.1171 29.4376 27.476 26.8753 27.476 23.9992C27.476 21.1231 26.1171 18.5628 24.0001 16.9152Z" fill="#FF5F01"/>
</svg>
