<svg width="40" height="41" viewBox="0 0 40 41" fill="none" xmlns="http://www.w3.org/2000/svg">
<path fill-rule="evenodd" clip-rule="evenodd" d="M20.5015 18.1969C20.4859 19.59 21.6743 20.3664 22.5695 20.8295C23.4893 21.3036 23.7978 21.6074 23.7944 22.0311C23.7875 22.6805 23.0605 22.9668 22.3805 22.9779C21.1934 22.9975 20.5039 22.6378 19.9547 22.3669L19.5272 24.4864C20.0786 24.7548 21.0975 24.9885 22.1537 25C24.6352 25 26.258 23.7021 26.266 21.6907C26.2764 19.1384 22.9339 18.9975 22.9567 17.8569C22.9643 17.5102 23.2758 17.1415 23.9585 17.047C24.2966 17.0003 25.23 16.9641 26.287 17.4794L26.7022 15.4287C26.1335 15.2102 25.4026 15 24.4922 15C22.1579 15 20.5145 16.3147 20.5015 18.1969ZM30.6929 15.177C30.239 15.177 29.8569 15.4561 29.6871 15.8864L26.1429 24.8492H28.623L29.1156 23.404H32.1455L32.4308 24.8492H34.6154L32.7085 15.177H30.6929ZM31.0389 17.7901L31.7544 21.4218H29.7953L31.0389 17.7901ZM17.4966 15.177L15.5427 24.8492H17.9046L19.8578 15.177H17.4966ZM14.0016 15.177L11.5433 21.7601L10.549 16.1628C10.4326 15.5378 9.97154 15.177 9.45965 15.177H5.44042L5.38464 15.4573C6.20954 15.6474 7.14703 15.9539 7.71492 16.2805C8.06242 16.4804 8.16168 16.6548 8.27603 17.1301L10.1592 24.8492H12.6559L16.4826 15.177H14.0016Z" fill="#001D78"/>
</svg>
